<?xml version="1.0" encoding="UTF-8" standalone="no"?>
<svg
   version="1.1"
   width="142.00624"
   height="141.99959"
   id="svg423"
   xmlns="http://www.w3.org/2000/svg"
   xmlns:svg="http://www.w3.org/2000/svg">
  <defs
     id="defs423" />
  <path
     d="M 50.294309,122.86836 C 38.482498,117.84834 30.660688,109.33484 25.725478,97.346933 c -6.25638,-17.46571 -4.97922,-34.140396 2.59765,-51.070316 6.2508,-12.80433 14.114576,-21.963196 27.371101,-27.808596 26.394082,-8.7801801 38.114312,15.726846 17.46875,39.972666 -1.84938,2.042257 -3.74369,4.036668 -5.65235,6.023433 -13.18213,13.830654 -19.08229,27.595013 -18.98437,46.45313 0.15454,3.26694 1.152,8.74273 1.76805,11.95111 z"
     fill="#925b36"
     id="path2-9" />
  <path
     d="m 91.989002,18.387777 c 11.811808,5.02002 19.633618,13.53352 24.568828,25.521424 6.25638,17.46571 4.97922,34.140396 -2.59765,51.070316 C 107.70938,107.78385 99.845614,116.94272 86.589082,122.78812 60.195,131.5683 48.47477,107.06127 69.120332,82.815447 c 1.84938,-2.042257 3.74369,-4.036668 5.65235,-6.023433 13.18213,-13.830654 19.08229,-27.595013 18.98437,-46.453127 -0.15454,-3.26694 -1.152,-8.74273 -1.76805,-11.95111 z"
     fill="#925b36"
     id="path2-9-8" />
  <path
     style="fill:#f38f0f;fill-opacity:1;stroke:none;stroke-width:2;stroke-linecap:square;stroke-linejoin:bevel;stroke-dasharray:none;stroke-opacity:1"
     d="M 85.333172,20.077298 C 97.945697,72.976721 34.909342,68.843052 59.661763,122.97509 39.958319,73.363806 104.75413,72.375803 85.333172,20.077298 Z"
     id="path425" />
  <path
     style="fill:none;fill-opacity:1;stroke:#925b36;stroke-width:4;stroke-linecap:square;stroke-linejoin:bevel;stroke-dasharray:none;stroke-opacity:1"
     id="path426"
     d="M 139.99989,71.000206 A 68.999725,68.999283 0 0 1 71.913436,139.99344 68.999725,68.999283 0 0 1 2.024611,72.826587 68.999725,68.999283 0 0 1 68.260971,2.0553152 68.999725,68.999283 0 0 1 139.9032,67.348724" />
</svg>
