<?xml version="1.0" encoding="UTF-8" standalone="no"?>
<!-- Uploaded to: SVG Repo, www.svgrepo.com, Generator: SVG Repo Mixer Tools -->

<svg
   width="653"
   height="652"
   viewBox="0 0 19.59 19.56"
   fill="none"
   version="1.1"
   id="svg3"
   sodipodi:docname="shopping-bag.svg"
   inkscape:version="1.4.2 (f4327f4, 2025-05-13)"
   xmlns:inkscape="http://www.inkscape.org/namespaces/inkscape"
   xmlns:sodipodi="http://sodipodi.sourceforge.net/DTD/sodipodi-0.dtd"
   xmlns="http://www.w3.org/2000/svg"
   xmlns:svg="http://www.w3.org/2000/svg">
  <defs
     id="defs3" />
  <sodipodi:namedview
     id="namedview3"
     pagecolor="#505050"
     bordercolor="#eeeeee"
     borderopacity="1"
     inkscape:showpageshadow="0"
     inkscape:pageopacity="0"
     inkscape:pagecheckerboard="0"
     inkscape:deskcolor="#505050"
     inkscape:zoom="0.17081048"
     inkscape:cx="330.77596"
     inkscape:cy="-155.14271"
     inkscape:window-width="1920"
     inkscape:window-height="991"
     inkscape:window-x="1911"
     inkscape:window-y="-9"
     inkscape:window-maximized="1"
     inkscape:current-layer="svg3" />
  <path
     d="m 1.6530651,14.226853 c -0.85794996,-3.4318 -1.28691992,-5.1476998 -0.38609,-6.3013998 0.90083,-1.1538 2.66954,-1.1538 6.20695,-1.1538 h 4.6306809 c 3.5374,0 5.3061,0 6.2069,1.1538 0.9009,1.1537 0.4719,2.8695998 -0.386,6.3013998 -0.5457,2.1827 -0.8186,3.274 -1.6323,3.9094 -0.8138,0.6354 -1.9387,0.6354 -4.1886,0.6354 H 7.4739251 c -2.24986,0 -3.37479,0 -4.18857,-0.6354 -0.81378,-0.6354 -1.08662,-1.7267 -1.63229,-3.9094 z"
     stroke="#1c274c"
     stroke-width="1.5"
     id="path1"
     style="stroke:#f3eacc;stroke-opacity:1" />
  <path
     d="m 17.289306,7.2716532 -0.7104,-2.60535 c -0.2739,-1.0046 -0.4109,-1.5069 -0.6918,-1.88519 -0.2798,-0.37673 -0.66,-0.66712 -1.097,-0.83794 -0.4389,-0.17152 -0.9595,-0.17152 -2.0008,-0.17152 m -10.5000009,5.5 0.7104,-2.60535 c 0.27392,-1.0046 0.41088,-1.5069 0.69181,-1.88519 0.27978,-0.37673 0.65995,-0.66712 1.09701,-0.83794 0.43886,-0.17152 0.9595,-0.17152 2.00078,-0.17152"
     stroke="#1c274c"
     stroke-width="1.5"
     id="path2"
     style="stroke:#f3eacc;stroke-opacity:1" />
  <path
     d="m 6.7893051,1.7716532 c 0,-0.55228 0.44772,-1.00000005 1,-1.00000005 h 4.0000009 c 0.5523,0 1,0.44772005 1,1.00000005 0,0.55228 -0.4477,1 -1,1 H 7.7893051 c -0.55228,0 -1,-0.44772 -1,-1 z"
     stroke="#1c274c"
     stroke-width="1.5"
     id="path3"
     style="stroke:#f3eacc;stroke-opacity:1" />
</svg>
